# xmcd
#
# Track frame offsets: 
#        150
#        16193
#        36599
#        53602
#        70448
#        94144
#        107083
#        120959
#        136323
#        151504
#        178079
#        185591
#        201020
#
# Disc length: 2947 seconds
#
# Revision: 0
# Processed by: cddbd v1.5.2PL0 Copyright (c) Steve Scherf et al.
# Submitted via: ExactAudioCopy v0.99pb5
#
DISCID=a90b810d
DTITLE=Jon Shain - Times Right Now
DYEAR=2009
DGENRE=Piedmont Blues
TTITLE0=James Alley Blues
TTITLE1=Mr. Snakeoil!
TTITLE2=Spinning Compass
TTITLE3=Something New
TTITLE4=Clementine
TTITLE5=Driving Them Crazy
TTITLE6=Careless Love
TTITLE7=Ooncha Ooncha Music
TTITLE8=Midnight Snack
TTITLE9=Louise, Louise
TTITLE10=Song For Dara
TTITLE11=Little Flower
TTITLE12=Yadkin River Blues
EXTD=
EXTT0=
EXTT1=
EXTT2=
EXTT3=
EXTT4=
EXTT5=
EXTT6=
EXTT7=
EXTT8=
EXTT9=
EXTT10=
EXTT11=
EXTT12=
PLAYORDER=
